<?xml version="1.0" standalone="no"?>
<!DOCTYPE svg PUBLIC "-//W3C//DTD SVG 20010904//EN"
 "http://www.w3.org/TR/2001/REC-SVG-20010904/DTD/svg10.dtd">
<svg version="1.0" xmlns="http://www.w3.org/2000/svg"
 width="1000.000000pt" height="1000.000000pt" viewBox="0 0 1000.000000 1000.000000"
 preserveAspectRatio="xMidYMid meet">

<g transform="translate(0.000000,1000.000000) scale(0.100000,-0.100000)"
fill="#000000" stroke="none">
<path d="M1355 7228 c-6 -20 -95 -472 -95 -485 0 -10 69 -13 313 -13 l313 0
47 243 c26 133 47 248 47 255 0 18 -619 18 -625 0z"/>
<path d="M3036 7229 c-406 -56 -675 -283 -821 -692 l-33 -92 -109 -3 -109 -3
-31 -167 c-17 -92 -29 -170 -26 -174 2 -5 49 -8 104 -8 54 0 99 -3 99 -7 0 -5
-34 -174 -75 -378 -41 -203 -124 -622 -185 -930 -61 -308 -114 -570 -117 -582
l-5 -23 316 0 c174 0 316 3 316 8 0 4 47 239 104 522 58 283 141 704 186 935
44 231 85 430 90 443 10 22 11 22 237 22 l228 0 33 163 c18 89 33 168 32 175
0 9 -53 12 -230 12 l-230 0 5 23 c2 12 12 54 20 92 33 149 97 239 192 275 96
36 318 22 466 -29 43 -15 59 -17 62 -8 12 34 66 341 62 352 -6 14 -96 40 -207
60 -109 19 -289 26 -374 14z"/>
<path d="M8525 7228 c-2 -7 -36 -173 -76 -368 -39 -195 -75 -359 -79 -363 -4
-5 -36 -3 -70 3 -104 19 -283 14 -373 -9 -181 -47 -350 -152 -512 -315 -269
-272 -437 -605 -475 -943 -28 -253 76 -461 267 -533 52 -20 72 -22 188 -17
193 7 341 56 490 162 59 42 125 107 155 153 10 16 23 23 37 20 21 -3 21 -4
-13 -138 -18 -74 -33 -143 -34 -152 0 -17 21 -18 309 -18 l309 0 12 53 c28
131 490 2454 490 2465 0 18 -619 17 -625 0z"/>
<path d="M4108 6480 c-211 -26 -416 -105 -575 -221 -84 -61 -250 -233 -306
-316 -154 -232 -237 -479 -237 -707 0 -177 39 -275 155 -391 52 -53 92 -81
155 -112 484 -238 1123 -32 1462 471 227 338 294 707 173 946 -99 196 -344
322 -650 334 -60 3 -140 1 -177 -4z"/>
<path d="M6100 6479 c-194 -22 -434 -117 -580 -227 -89 -68 -234 -221 -298
-314 -199 -290 -290 -670 -213 -890 65 -188 231 -323 471 -384 295 -74 636 -8
919 180 346 230 589 659 591 1041 0 165 -45 280 -155 390 -160 162 -435 238
-735 204z"/>
<path d="M1195 6428 c-15 -65 -345 -1734 -345 -1745 0 -11 57 -13 312 -11
l312 3 177 880 c97 484 175 883 172 888 -2 4 -143 7 -313 7 l-310 0 -5 -22z"/>
<path d="M2770 4151 c0 -33 48 -207 80 -288 91 -228 218 -421 395 -599 270
-271 568 -424 932 -479 288 -43 627 -25 928 51 300 75 607 223 862 415 58 44
107 78 108 77 1 -2 42 -115 90 -253 47 -137 90 -253 94 -257 3 -4 67 296 140
668 73 371 131 677 129 680 -3 2 -286 3 -631 2 l-625 -3 194 -150 c108 -82
203 -156 212 -163 15 -12 13 -17 -23 -48 -240 -210 -524 -361 -861 -459 -226
-66 -408 -90 -632 -82 -179 6 -271 22 -429 75 -378 127 -697 396 -890 749 -42
79 -73 105 -73 64z"/>
</g>
</svg>
